<svg id="visual" viewBox="0 0 960 540" width="960" height="540" xmlns="http://www.w3.org/2000/svg" xmlns:xlink="http://www.w3.org/1999/xlink" version="1.1"><rect x="0" y="0" width="960" height="540" fill="#000000"></rect><defs><linearGradient id="grad1_0" x1="43.8%" y1="100%" x2="100%" y2="0%"><stop offset="14.444444444444446%" stop-color="#0066ff" stop-opacity="1"></stop><stop offset="85.55555555555554%" stop-color="#0066ff" stop-opacity="1"></stop></linearGradient></defs><defs><linearGradient id="grad1_1" x1="43.8%" y1="100%" x2="100%" y2="0%"><stop offset="14.444444444444446%" stop-color="#0066ff" stop-opacity="1"></stop><stop offset="85.55555555555554%" stop-color="#0056eb" stop-opacity="1"></stop></linearGradient></defs><defs><linearGradient id="grad1_2" x1="43.8%" y1="100%" x2="100%" y2="0%"><stop offset="14.444444444444446%" stop-color="#0046d7" stop-opacity="1"></stop><stop offset="85.55555555555554%" stop-color="#0056eb" stop-opacity="1"></stop></linearGradient></defs><defs><linearGradient id="grad1_3" x1="43.8%" y1="100%" x2="100%" y2="0%"><stop offset="14.444444444444446%" stop-color="#0046d7" stop-opacity="1"></stop><stop offset="85.55555555555554%" stop-color="#0038c3" stop-opacity="1"></stop></linearGradient></defs><defs><linearGradient id="grad1_4" x1="43.8%" y1="100%" x2="100%" y2="0%"><stop offset="14.444444444444446%" stop-color="#002ab0" stop-opacity="1"></stop><stop offset="85.55555555555554%" stop-color="#0038c3" stop-opacity="1"></stop></linearGradient></defs><defs><linearGradient id="grad1_5" x1="43.8%" y1="100%" x2="100%" y2="0%"><stop offset="14.444444444444446%" stop-color="#002ab0" stop-opacity="1"></stop><stop offset="85.55555555555554%" stop-color="#001e9d" stop-opacity="1"></stop></linearGradient></defs><defs><linearGradient id="grad1_6" x1="43.8%" y1="100%" x2="100%" y2="0%"><stop offset="14.444444444444446%" stop-color="#00138b" stop-opacity="1"></stop><stop offset="85.55555555555554%" stop-color="#001e9d" stop-opacity="1"></stop></linearGradient></defs><defs><linearGradient id="grad1_7" x1="43.8%" y1="100%" x2="100%" y2="0%"><stop offset="14.444444444444446%" stop-color="#00138b" stop-opacity="1"></stop><stop offset="85.55555555555554%" stop-color="#000000" stop-opacity="1"></stop></linearGradient></defs><defs><linearGradient id="grad2_0" x1="0%" y1="100%" x2="56.3%" y2="0%"><stop offset="14.444444444444446%" stop-color="#0066ff" stop-opacity="1"></stop><stop offset="85.55555555555554%" stop-color="#0066ff" stop-opacity="1"></stop></linearGradient></defs><defs><linearGradient id="grad2_1" x1="0%" y1="100%" x2="56.3%" y2="0%"><stop offset="14.444444444444446%" stop-color="#0056eb" stop-opacity="1"></stop><stop offset="85.55555555555554%" stop-color="#0066ff" stop-opacity="1"></stop></linearGradient></defs><defs><linearGradient id="grad2_2" x1="0%" y1="100%" x2="56.3%" y2="0%"><stop offset="14.444444444444446%" stop-color="#0056eb" stop-opacity="1"></stop><stop offset="85.55555555555554%" stop-color="#0046d7" stop-opacity="1"></stop></linearGradient></defs><defs><linearGradient id="grad2_3" x1="0%" y1="100%" x2="56.3%" y2="0%"><stop offset="14.444444444444446%" stop-color="#0038c3" stop-opacity="1"></stop><stop offset="85.55555555555554%" stop-color="#0046d7" stop-opacity="1"></stop></linearGradient></defs><defs><linearGradient id="grad2_4" x1="0%" y1="100%" x2="56.3%" y2="0%"><stop offset="14.444444444444446%" stop-color="#0038c3" stop-opacity="1"></stop><stop offset="85.55555555555554%" stop-color="#002ab0" stop-opacity="1"></stop></linearGradient></defs><defs><linearGradient id="grad2_5" x1="0%" y1="100%" x2="56.3%" y2="0%"><stop offset="14.444444444444446%" stop-color="#001e9d" stop-opacity="1"></stop><stop offset="85.55555555555554%" stop-color="#002ab0" stop-opacity="1"></stop></linearGradient></defs><defs><linearGradient id="grad2_6" x1="0%" y1="100%" x2="56.3%" y2="0%"><stop offset="14.444444444444446%" stop-color="#001e9d" stop-opacity="1"></stop><stop offset="85.55555555555554%" stop-color="#00138b" stop-opacity="1"></stop></linearGradient></defs><defs><linearGradient id="grad2_7" x1="0%" y1="100%" x2="56.3%" y2="0%"><stop offset="14.444444444444446%" stop-color="#000000" stop-opacity="1"></stop><stop offset="85.55555555555554%" stop-color="#00138b" stop-opacity="1"></stop></linearGradient></defs><g transform="translate(960, 540)"><path d="M-405 0C-405 -39.2 -405 -78.5 -377.7 -101.2C-350.3 -123.9 -295.6 -130.2 -282.3 -163C-269 -195.8 -297.2 -255.2 -286.4 -286.4C-275.5 -317.5 -225.7 -320.4 -187.5 -324.8C-149.3 -329.1 -122.7 -335.1 -93.4 -348.7C-64.1 -362.3 -32.1 -383.7 0 -405L0 0Z" fill="#000b82"></path><path d="M-354.4 0C-354.4 -34.3 -354.4 -68.7 -330.5 -88.5C-306.5 -108.4 -258.7 -113.9 -247 -142.6C-235.4 -171.3 -260.1 -223.3 -250.6 -250.6C-241.1 -277.8 -197.5 -280.3 -164.1 -284.2C-130.6 -288 -107.4 -293.2 -81.8 -305.1C-56.1 -317 -28.1 -335.7 0 -354.4L0 0Z" fill="#001894"></path><path d="M-303.7 0C-303.8 -29.4 -303.8 -58.8 -283.3 -75.9C-262.7 -93 -221.7 -97.6 -211.7 -122.3C-201.8 -146.9 -222.9 -191.4 -214.8 -214.8C-206.7 -238.1 -169.3 -240.3 -140.6 -243.6C-112 -246.9 -92.1 -251.3 -70.1 -261.5C-48.1 -271.7 -24 -287.7 0 -303.7L0 0Z" fill="#0024a7"></path><path d="M-253.1 0C-253.1 -24.5 -253.1 -49 -236 -63.2C-219 -77.5 -184.8 -81.4 -176.5 -101.9C-168.2 -122.4 -185.8 -159.5 -179 -179C-172.2 -198.4 -141.1 -200.2 -117.2 -203C-93.3 -205.7 -76.7 -209.4 -58.4 -217.9C-40.1 -226.5 -20 -239.8 0 -253.1L0 0Z" fill="#0031ba"></path><path d="M-202.5 0C-202.5 -19.6 -202.5 -39.2 -188.8 -50.6C-175.2 -62 -147.8 -65.1 -141.2 -81.5C-134.5 -97.9 -148.6 -127.6 -143.2 -143.2C-137.8 -158.8 -112.8 -160.2 -93.8 -162.4C-74.7 -164.6 -61.4 -167.5 -46.7 -174.3C-32.1 -181.2 -16 -191.8 0 -202.5L0 0Z" fill="#003fcd"></path><path d="M-151.9 0C-151.9 -14.7 -151.9 -29.4 -141.6 -37.9C-131.4 -46.5 -110.9 -48.8 -105.9 -61.1C-100.9 -73.4 -111.5 -95.7 -107.4 -107.4C-103.3 -119.1 -84.6 -120.1 -70.3 -121.8C-56 -123.4 -46 -125.7 -35 -130.8C-24 -135.9 -12 -143.9 0 -151.9L0 0Z" fill="#004ee1"></path><path d="M-101.2 0C-101.3 -9.8 -101.3 -19.6 -94.4 -25.3C-87.6 -31 -73.9 -32.5 -70.6 -40.8C-67.3 -49 -74.3 -63.8 -71.6 -71.6C-68.9 -79.4 -56.4 -80.1 -46.9 -81.2C-37.3 -82.3 -30.7 -83.8 -23.4 -87.2C-16 -90.6 -8 -95.9 0 -101.2L0 0Z" fill="#005ef5"></path><path d="M-50.6 0C-50.6 -4.9 -50.6 -9.8 -47.2 -12.6C-43.8 -15.5 -37 -16.3 -35.3 -20.4C-33.6 -24.5 -37.2 -31.9 -35.8 -35.8C-34.4 -39.7 -28.2 -40 -23.4 -40.6C-18.7 -41.1 -15.3 -41.9 -11.7 -43.6C-8 -45.3 -4 -48 0 -50.6L0 0Z" fill="#0066ff"></path></g><g transform="translate(0, 0)"><path d="M405 0C409.5 39 414 78 391.2 104.8C368.4 131.7 318.3 146.3 292.7 169C267.2 191.7 266.2 222.3 256 256C245.7 289.6 226.2 326.2 197.5 342.1C168.8 358 131 353.2 96.5 360.3C62.1 367.3 31 386.2 0 405L0 0Z" fill="#000b82"></path><path d="M354.4 0C358.3 34.1 362.3 68.2 342.3 91.7C322.3 115.2 278.5 128 256.1 147.9C233.8 167.7 232.9 194.6 224 224C215 253.4 197.9 285.4 172.8 299.3C147.7 313.2 114.6 309.1 84.5 315.3C54.3 321.4 27.2 337.9 0 354.4L0 0Z" fill="#001894"></path><path d="M303.8 0C307.1 29.2 310.5 58.5 293.4 78.6C276.3 98.7 238.7 109.7 219.5 126.7C200.4 143.8 199.7 166.8 192 192C184.3 217.2 169.6 244.6 148.1 256.6C126.6 268.5 98.2 264.9 72.4 270.2C46.6 275.5 23.3 289.6 0 303.8L0 0Z" fill="#0024a7"></path><path d="M253.1 0C255.9 24.4 258.8 48.7 244.5 65.5C230.2 82.3 198.9 91.5 182.9 105.6C167 119.8 166.4 139 160 160C153.6 181 141.4 203.9 123.4 213.8C105.5 223.7 81.9 220.8 60.3 225.2C38.8 229.6 19.4 241.4 0 253.1L0 0Z" fill="#0031ba"></path><path d="M202.5 0C204.8 19.5 207 39 195.6 52.4C184.2 65.8 159.1 73.2 146.4 84.5C133.6 95.8 133.1 111.2 128 128C122.9 144.8 113.1 163.1 98.8 171C84.4 179 65.5 176.6 48.3 180.1C31 183.7 15.5 193.1 0 202.5L0 0Z" fill="#003fcd"></path><path d="M151.9 0C153.6 14.6 155.3 29.2 146.7 39.3C138.1 49.4 119.3 54.9 109.8 63.4C100.2 71.9 99.8 83.4 96 96C92.1 108.6 84.8 122.3 74.1 128.3C63.3 134.2 49.1 132.5 36.2 135.1C23.3 137.8 11.6 144.8 0 151.9L0 0Z" fill="#004ee1"></path><path d="M101.3 0C102.4 9.7 103.5 19.5 97.8 26.2C92.1 32.9 79.6 36.6 73.2 42.2C66.8 47.9 66.6 55.6 64 64C61.4 72.4 56.5 81.5 49.4 85.5C42.2 89.5 32.7 88.3 24.1 90.1C15.5 91.8 7.8 96.5 0 101.3L0 0Z" fill="#005ef5"></path><path d="M50.6 0C51.2 4.9 51.8 9.7 48.9 13.1C46 16.5 39.8 18.3 36.6 21.1C33.4 24 33.3 27.8 32 32C30.7 36.2 28.3 40.8 24.7 42.8C21.1 44.7 16.4 44.2 12.1 45C7.8 45.9 3.9 48.3 0 50.6L0 0Z" fill="#0066ff"></path></g></svg>