<svg id="visual" viewBox="0 0 960 540" width="960" height="540" xmlns="http://www.w3.org/2000/svg" xmlns:xlink="http://www.w3.org/1999/xlink" version="1.1"><rect x="0" y="0" width="960" height="540" fill="#001220"></rect><defs><linearGradient id="grad1_0" x1="43.8%" y1="0%" x2="100%" y2="100%"><stop offset="14.444444444444446%" stop-color="#3070ca" stop-opacity="1"></stop><stop offset="85.55555555555554%" stop-color="#3070ca" stop-opacity="1"></stop></linearGradient></defs><defs><linearGradient id="grad1_1" x1="43.8%" y1="0%" x2="100%" y2="100%"><stop offset="14.444444444444446%" stop-color="#3070ca" stop-opacity="1"></stop><stop offset="85.55555555555554%" stop-color="#155da5" stop-opacity="1"></stop></linearGradient></defs><defs><linearGradient id="grad1_2" x1="43.8%" y1="0%" x2="100%" y2="100%"><stop offset="14.444444444444446%" stop-color="#004a81" stop-opacity="1"></stop><stop offset="85.55555555555554%" stop-color="#155da5" stop-opacity="1"></stop></linearGradient></defs><defs><linearGradient id="grad1_3" x1="43.8%" y1="0%" x2="100%" y2="100%"><stop offset="14.444444444444446%" stop-color="#004a81" stop-opacity="1"></stop><stop offset="85.55555555555554%" stop-color="#00375f" stop-opacity="1"></stop></linearGradient></defs><defs><linearGradient id="grad1_4" x1="43.8%" y1="0%" x2="100%" y2="100%"><stop offset="14.444444444444446%" stop-color="#00243e" stop-opacity="1"></stop><stop offset="85.55555555555554%" stop-color="#00375f" stop-opacity="1"></stop></linearGradient></defs><defs><linearGradient id="grad1_5" x1="43.8%" y1="0%" x2="100%" y2="100%"><stop offset="14.444444444444446%" stop-color="#00243e" stop-opacity="1"></stop><stop offset="85.55555555555554%" stop-color="#001220" stop-opacity="1"></stop></linearGradient></defs><defs><linearGradient id="grad2_0" x1="0%" y1="0%" x2="56.3%" y2="100%"><stop offset="14.444444444444446%" stop-color="#3070ca" stop-opacity="1"></stop><stop offset="85.55555555555554%" stop-color="#3070ca" stop-opacity="1"></stop></linearGradient></defs><defs><linearGradient id="grad2_1" x1="0%" y1="0%" x2="56.3%" y2="100%"><stop offset="14.444444444444446%" stop-color="#155da5" stop-opacity="1"></stop><stop offset="85.55555555555554%" stop-color="#3070ca" stop-opacity="1"></stop></linearGradient></defs><defs><linearGradient id="grad2_2" x1="0%" y1="0%" x2="56.3%" y2="100%"><stop offset="14.444444444444446%" stop-color="#155da5" stop-opacity="1"></stop><stop offset="85.55555555555554%" stop-color="#004a81" stop-opacity="1"></stop></linearGradient></defs><defs><linearGradient id="grad2_3" x1="0%" y1="0%" x2="56.3%" y2="100%"><stop offset="14.444444444444446%" stop-color="#00375f" stop-opacity="1"></stop><stop offset="85.55555555555554%" stop-color="#004a81" stop-opacity="1"></stop></linearGradient></defs><defs><linearGradient id="grad2_4" x1="0%" y1="0%" x2="56.3%" y2="100%"><stop offset="14.444444444444446%" stop-color="#00375f" stop-opacity="1"></stop><stop offset="85.55555555555554%" stop-color="#00243e" stop-opacity="1"></stop></linearGradient></defs><defs><linearGradient id="grad2_5" x1="0%" y1="0%" x2="56.3%" y2="100%"><stop offset="14.444444444444446%" stop-color="#001220" stop-opacity="1"></stop><stop offset="85.55555555555554%" stop-color="#00243e" stop-opacity="1"></stop></linearGradient></defs><g transform="translate(960, 0)"><path d="M0 297C-21.9 286.5 -43.7 276 -73.5 274.3C-103.3 272.7 -141 279.9 -146 252.9C-151 225.9 -123.3 164.7 -148.5 148.5C-173.7 132.2 -251.7 160.9 -257.2 148.5C-262.7 136.1 -195.7 82.6 -190.3 51C-184.8 19.4 -240.9 9.7 -297 0L0 0Z" fill="#021b2f"></path><path d="M0 247.5C-18.2 238.7 -36.4 230 -61.3 228.6C-86.1 227.2 -117.5 233.2 -121.7 210.7C-125.8 188.2 -102.8 137.3 -123.7 123.7C-144.7 110.2 -209.7 134.1 -214.3 123.8C-218.9 113.4 -163.1 68.8 -158.6 42.5C-154 16.2 -200.8 8.1 -247.5 0L0 0Z" fill="#002d4e"></path><path d="M0 198C-14.6 191 -29.1 184 -49 182.9C-68.9 181.8 -94 186.6 -97.3 168.6C-100.7 150.6 -82.2 109.8 -99 99C-115.8 88.2 -167.8 107.3 -171.5 99C-175.2 90.7 -130.5 55.1 -126.9 34C-123.2 12.9 -160.6 6.5 -198 0L0 0Z" fill="#004070"></path><path d="M0 148.5C-10.9 143.2 -21.9 138 -36.8 137.2C-51.6 136.3 -70.5 139.9 -73 126.4C-75.5 112.9 -61.7 82.4 -74.2 74.2C-86.8 66.1 -125.8 80.5 -128.6 74.3C-131.4 68 -97.9 41.3 -95.1 25.5C-92.4 9.7 -120.5 4.8 -148.5 0L0 0Z" fill="#085393"></path><path d="M0 99C-7.3 95.5 -14.6 92 -24.5 91.4C-34.4 90.9 -47 93.3 -48.7 84.3C-50.3 75.3 -41.1 54.9 -49.5 49.5C-57.9 44.1 -83.9 53.6 -85.7 49.5C-87.6 45.4 -65.2 27.5 -63.4 17C-61.6 6.5 -80.3 3.2 -99 0L0 0Z" fill="#2266b7"></path><path d="M0 49.5C-3.6 47.7 -7.3 46 -12.3 45.7C-17.2 45.4 -23.5 46.6 -24.3 42.1C-25.2 37.6 -20.6 27.5 -24.7 24.7C-28.9 22 -41.9 26.8 -42.9 24.8C-43.8 22.7 -32.6 13.8 -31.7 8.5C-30.8 3.2 -40.2 1.6 -49.5 0L0 0Z" fill="#3070ca"></path></g><g transform="translate(0, 540)"><path d="M0 -297C29 -301.7 58 -306.5 76.9 -286.9C95.8 -267.3 104.6 -223.3 114 -197.5C123.4 -171.6 133.5 -163.9 159.8 -159.8C186.2 -155.7 228.8 -155.3 239.9 -138.5C251 -121.7 230.5 -88.7 234.7 -62.9C239 -37.1 268 -18.5 297 0L0 0Z" fill="#021b2f"></path><path d="M0 -247.5C24.2 -251.5 48.3 -255.4 64.1 -239.1C79.8 -222.7 87.1 -186.1 95 -164.5C102.9 -143 111.2 -136.6 133.2 -133.2C155.1 -129.8 190.7 -129.4 199.9 -115.4C209.1 -101.5 192.1 -73.9 195.6 -52.4C199.1 -30.9 223.3 -15.5 247.5 0L0 0Z" fill="#002d4e"></path><path d="M0 -198C19.3 -201.2 38.6 -204.3 51.2 -191.3C63.8 -178.2 69.7 -148.9 76 -131.6C82.3 -114.4 89 -109.3 106.5 -106.5C124.1 -103.8 152.5 -103.5 159.9 -92.3C167.3 -81.2 153.6 -59.1 156.5 -41.9C159.3 -24.7 178.7 -12.4 198 0L0 0Z" fill="#004070"></path><path d="M0 -148.5C14.5 -150.9 29 -153.2 38.4 -143.4C47.9 -133.6 52.3 -111.6 57 -98.7C61.7 -85.8 66.7 -81.9 79.9 -79.9C93.1 -77.9 114.4 -77.6 119.9 -69.3C125.5 -60.9 115.2 -44.3 117.4 -31.4C119.5 -18.5 134 -9.3 148.5 0L0 0Z" fill="#085393"></path><path d="M0 -99C9.7 -100.6 19.3 -102.2 25.6 -95.6C31.9 -89.1 34.9 -74.4 38 -65.8C41.1 -57.2 44.5 -54.6 53.3 -53.3C62.1 -51.9 76.3 -51.8 80 -46.2C83.7 -40.6 76.8 -29.6 78.2 -21C79.7 -12.4 89.3 -6.2 99 0L0 0Z" fill="#2266b7"></path><path d="M0 -49.5C4.8 -50.3 9.7 -51.1 12.8 -47.8C16 -44.5 17.4 -37.2 19 -32.9C20.6 -28.6 22.2 -27.3 26.6 -26.6C31 -26 38.1 -25.9 40 -23.1C41.8 -20.3 38.4 -14.8 39.1 -10.5C39.8 -6.2 44.7 -3.1 49.5 0L0 0Z" fill="#3070ca"></path></g></svg>