<svg id="visual" viewBox="0 0 960 540" width="960" height="540" xmlns="http://www.w3.org/2000/svg" xmlns:xlink="http://www.w3.org/1999/xlink" version="1.1"><rect x="0" y="0" width="960" height="540" fill="#000000"></rect><defs><linearGradient id="grad1_0" x1="43.8%" y1="100%" x2="100%" y2="0%"><stop offset="14.444444444444446%" stop-color="#0066ff" stop-opacity="1"></stop><stop offset="85.55555555555554%" stop-color="#0066ff" stop-opacity="1"></stop></linearGradient></defs><defs><linearGradient id="grad1_1" x1="43.8%" y1="100%" x2="100%" y2="0%"><stop offset="14.444444444444446%" stop-color="#0066ff" stop-opacity="1"></stop><stop offset="85.55555555555554%" stop-color="#0056eb" stop-opacity="1"></stop></linearGradient></defs><defs><linearGradient id="grad1_2" x1="43.8%" y1="100%" x2="100%" y2="0%"><stop offset="14.444444444444446%" stop-color="#0046d7" stop-opacity="1"></stop><stop offset="85.55555555555554%" stop-color="#0056eb" stop-opacity="1"></stop></linearGradient></defs><defs><linearGradient id="grad1_3" x1="43.8%" y1="100%" x2="100%" y2="0%"><stop offset="14.444444444444446%" stop-color="#0046d7" stop-opacity="1"></stop><stop offset="85.55555555555554%" stop-color="#0038c3" stop-opacity="1"></stop></linearGradient></defs><defs><linearGradient id="grad1_4" x1="43.8%" y1="100%" x2="100%" y2="0%"><stop offset="14.444444444444446%" stop-color="#002ab0" stop-opacity="1"></stop><stop offset="85.55555555555554%" stop-color="#0038c3" stop-opacity="1"></stop></linearGradient></defs><defs><linearGradient id="grad1_5" x1="43.8%" y1="100%" x2="100%" y2="0%"><stop offset="14.444444444444446%" stop-color="#002ab0" stop-opacity="1"></stop><stop offset="85.55555555555554%" stop-color="#001e9d" stop-opacity="1"></stop></linearGradient></defs><defs><linearGradient id="grad1_6" x1="43.8%" y1="100%" x2="100%" y2="0%"><stop offset="14.444444444444446%" stop-color="#00138b" stop-opacity="1"></stop><stop offset="85.55555555555554%" stop-color="#001e9d" stop-opacity="1"></stop></linearGradient></defs><defs><linearGradient id="grad1_7" x1="43.8%" y1="100%" x2="100%" y2="0%"><stop offset="14.444444444444446%" stop-color="#00138b" stop-opacity="1"></stop><stop offset="85.55555555555554%" stop-color="#000000" stop-opacity="1"></stop></linearGradient></defs><defs><linearGradient id="grad2_0" x1="0%" y1="100%" x2="56.3%" y2="0%"><stop offset="14.444444444444446%" stop-color="#0066ff" stop-opacity="1"></stop><stop offset="85.55555555555554%" stop-color="#0066ff" stop-opacity="1"></stop></linearGradient></defs><defs><linearGradient id="grad2_1" x1="0%" y1="100%" x2="56.3%" y2="0%"><stop offset="14.444444444444446%" stop-color="#0056eb" stop-opacity="1"></stop><stop offset="85.55555555555554%" stop-color="#0066ff" stop-opacity="1"></stop></linearGradient></defs><defs><linearGradient id="grad2_2" x1="0%" y1="100%" x2="56.3%" y2="0%"><stop offset="14.444444444444446%" stop-color="#0056eb" stop-opacity="1"></stop><stop offset="85.55555555555554%" stop-color="#0046d7" stop-opacity="1"></stop></linearGradient></defs><defs><linearGradient id="grad2_3" x1="0%" y1="100%" x2="56.3%" y2="0%"><stop offset="14.444444444444446%" stop-color="#0038c3" stop-opacity="1"></stop><stop offset="85.55555555555554%" stop-color="#0046d7" stop-opacity="1"></stop></linearGradient></defs><defs><linearGradient id="grad2_4" x1="0%" y1="100%" x2="56.3%" y2="0%"><stop offset="14.444444444444446%" stop-color="#0038c3" stop-opacity="1"></stop><stop offset="85.55555555555554%" stop-color="#002ab0" stop-opacity="1"></stop></linearGradient></defs><defs><linearGradient id="grad2_5" x1="0%" y1="100%" x2="56.3%" y2="0%"><stop offset="14.444444444444446%" stop-color="#001e9d" stop-opacity="1"></stop><stop offset="85.55555555555554%" stop-color="#002ab0" stop-opacity="1"></stop></linearGradient></defs><defs><linearGradient id="grad2_6" x1="0%" y1="100%" x2="56.3%" y2="0%"><stop offset="14.444444444444446%" stop-color="#001e9d" stop-opacity="1"></stop><stop offset="85.55555555555554%" stop-color="#00138b" stop-opacity="1"></stop></linearGradient></defs><defs><linearGradient id="grad2_7" x1="0%" y1="100%" x2="56.3%" y2="0%"><stop offset="14.444444444444446%" stop-color="#000000" stop-opacity="1"></stop><stop offset="85.55555555555554%" stop-color="#00138b" stop-opacity="1"></stop></linearGradient></defs><g transform="translate(960, 540)"><path d="M-297 0C-278.1 -14.1 -259.3 -28.2 -256.1 -45.1C-252.8 -62.1 -265.3 -81.9 -257.5 -93.7C-249.6 -105.6 -221.5 -109.5 -210.4 -121.5C-199.4 -133.5 -205.4 -153.7 -200.7 -168.4C-196 -183.1 -180.7 -192.3 -166.5 -198.4C-152.2 -204.5 -139.1 -207.5 -130 -225.2C-120.9 -242.8 -115.9 -275.1 -101.6 -279.1C-87.3 -283.1 -63.8 -258.8 -45.3 -257C-26.9 -255.3 -13.4 -276.2 0 -297L0 0Z" fill="#000b82"></path><path d="M-259.9 0C-243.4 -12.3 -226.8 -24.7 -224 -39.5C-221.2 -54.3 -232.1 -71.6 -225.3 -82C-218.4 -92.4 -193.8 -95.8 -184.1 -106.3C-174.5 -116.8 -179.7 -134.5 -175.6 -147.4C-171.5 -160.2 -158.1 -168.3 -145.7 -173.6C-133.2 -178.9 -121.7 -181.6 -113.8 -197C-105.8 -212.5 -101.4 -240.7 -88.9 -244.2C-76.4 -247.7 -55.8 -226.4 -39.7 -224.9C-23.5 -223.4 -11.7 -241.6 0 -259.9L0 0Z" fill="#001894"></path><path d="M-222.7 0C-208.6 -10.6 -194.4 -21.2 -192 -33.9C-189.6 -46.6 -199 -61.4 -193.1 -70.3C-187.2 -79.2 -166.1 -82.1 -157.8 -91.1C-149.5 -100.2 -154 -115.3 -150.5 -126.3C-147 -137.3 -135.5 -144.2 -124.9 -148.8C-114.2 -153.4 -104.3 -155.6 -97.5 -168.9C-90.7 -182.1 -86.9 -206.3 -76.2 -209.3C-65.5 -212.3 -47.8 -194.1 -34 -192.8C-20.1 -191.5 -10.1 -207.1 0 -222.7L0 0Z" fill="#0024a7"></path><path d="M-185.6 0C-173.8 -8.8 -162 -17.6 -160 -28.2C-158 -38.8 -165.8 -51.2 -160.9 -58.6C-156 -66 -138.4 -68.4 -131.5 -75.9C-124.6 -83.5 -128.4 -96.1 -125.4 -105.3C-122.5 -114.4 -112.9 -120.2 -104.1 -124C-95.2 -127.8 -86.9 -129.7 -81.3 -140.7C-75.6 -151.8 -72.4 -171.9 -63.5 -174.4C-54.6 -176.9 -39.9 -161.7 -28.3 -160.6C-16.8 -159.6 -8.4 -172.6 0 -185.6L0 0Z" fill="#0031ba"></path><path d="M-148.5 0C-139.1 -7.1 -129.6 -14.1 -128 -22.6C-126.4 -31 -132.7 -40.9 -128.7 -46.9C-124.8 -52.8 -110.8 -54.7 -105.2 -60.8C-99.7 -66.8 -102.7 -76.9 -100.4 -84.2C-98 -91.6 -90.4 -96.2 -83.2 -99.2C-76.1 -102.3 -69.5 -103.8 -65 -112.6C-60.5 -121.4 -57.9 -137.6 -50.8 -139.5C-43.7 -141.5 -31.9 -129.4 -22.7 -128.5C-13.4 -127.7 -6.7 -138.1 0 -148.5L0 0Z" fill="#003fcd"></path><path d="M-111.4 0C-104.3 -5.3 -97.2 -10.6 -96 -16.9C-94.8 -23.3 -99.5 -30.7 -96.6 -35.1C-93.6 -39.6 -83.1 -41 -78.9 -45.6C-74.8 -50.1 -77 -57.6 -75.3 -63.2C-73.5 -68.7 -67.8 -72.1 -62.4 -74.4C-57.1 -76.7 -52.2 -77.8 -48.8 -84.4C-45.3 -91.1 -43.4 -103.2 -38.1 -104.7C-32.7 -106.2 -23.9 -97 -17 -96.4C-10.1 -95.7 -5 -103.6 0 -111.4L0 0Z" fill="#004ee1"></path><path d="M-74.2 0C-69.5 -3.5 -64.8 -7.1 -64 -11.3C-63.2 -15.5 -66.3 -20.5 -64.4 -23.4C-62.4 -26.4 -55.4 -27.4 -52.6 -30.4C-49.8 -33.4 -51.3 -38.4 -50.2 -42.1C-49 -45.8 -45.2 -48.1 -41.6 -49.6C-38.1 -51.1 -34.8 -51.9 -32.5 -56.3C-30.2 -60.7 -29 -68.8 -25.4 -69.8C-21.8 -70.8 -15.9 -64.7 -11.3 -64.3C-6.7 -63.8 -3.4 -69 0 -74.2L0 0Z" fill="#005ef5"></path><path d="M-37.1 0C-34.8 -1.8 -32.4 -3.5 -32 -5.6C-31.6 -7.8 -33.2 -10.2 -32.2 -11.7C-31.2 -13.2 -27.7 -13.7 -26.3 -15.2C-24.9 -16.7 -25.7 -19.2 -25.1 -21.1C-24.5 -22.9 -22.6 -24 -20.8 -24.8C-19 -25.6 -17.4 -25.9 -16.3 -28.1C-15.1 -30.4 -14.5 -34.4 -12.7 -34.9C-10.9 -35.4 -8 -32.3 -5.7 -32.1C-3.4 -31.9 -1.7 -34.5 0 -37.1L0 0Z" fill="#0066ff"></path></g><g transform="translate(0, 0)"><path d="M297 0C294.9 18 292.8 35.9 279.7 49.3C266.5 62.7 242.4 71.5 233 84.8C223.7 98.2 229.3 116 227.8 131.5C226.3 147 217.7 160 212.2 178.1C206.7 196.1 204.2 219.1 190.9 227.5C177.6 235.9 153.6 229.7 138 239C122.4 248.3 115.3 273 100.9 277.2C86.5 281.4 64.7 265 46.7 264.9C28.7 264.8 14.3 280.9 0 297L0 0Z" fill="#000b82"></path><path d="M259.9 0C258 15.7 256.2 31.4 244.7 43.2C233.2 54.9 212.1 62.6 203.9 74.2C195.8 85.9 200.6 101.5 199.3 115.1C198 128.6 190.5 140 185.7 155.8C180.8 171.6 178.7 191.7 167 199.1C155.4 206.4 134.4 201 120.8 209.1C107.1 217.3 100.9 238.9 88.3 242.6C75.7 246.2 56.7 231.9 40.9 231.8C25.1 231.7 12.5 245.8 0 259.9L0 0Z" fill="#001894"></path><path d="M222.8 0C221.2 13.5 219.6 27 209.8 37C199.9 47 181.8 53.6 174.8 63.6C167.8 73.6 172 87 170.8 98.6C169.7 110.2 163.3 120 159.1 133.5C155 147.1 153.1 164.3 143.2 170.6C133.2 176.9 115.2 172.3 103.5 179.3C91.8 186.2 86.5 204.8 75.7 207.9C64.9 211 48.6 198.8 35 198.7C21.5 198.6 10.8 210.7 0 222.8L0 0Z" fill="#0024a7"></path><path d="M185.6 0C184.3 11.2 183 22.5 174.8 30.8C166.6 39.2 151.5 44.7 145.7 53C139.8 61.3 143.3 72.5 142.4 82.2C141.4 91.9 136.1 100 132.6 111.3C129.2 122.6 127.6 136.9 119.3 142.2C111 147.5 96 143.6 86.3 149.4C76.5 155.2 72.1 170.6 63.1 173.3C54 175.9 40.5 165.6 29.2 165.6C17.9 165.5 9 175.6 0 185.6L0 0Z" fill="#0031ba"></path><path d="M148.5 0C147.5 9 146.4 18 139.8 24.7C133.3 31.3 121.2 35.7 116.5 42.4C111.9 49.1 114.6 58 113.9 65.7C113.1 73.5 108.9 80 106.1 89C103.3 98 102.1 109.5 95.5 113.8C88.8 118 76.8 114.9 69 119.5C61.2 124.1 57.7 136.5 50.4 138.6C43.2 140.7 32.4 132.5 23.4 132.5C14.3 132.4 7.2 140.4 0 148.5L0 0Z" fill="#003fcd"></path><path d="M111.4 0C110.6 6.7 109.8 13.5 104.9 18.5C100 23.5 90.9 26.8 87.4 31.8C83.9 36.8 86 43.5 85.4 49.3C84.8 55.1 81.6 60 79.6 66.8C77.5 73.5 76.6 82.2 71.6 85.3C66.6 88.5 57.6 86.2 51.8 89.6C45.9 93.1 43.2 102.4 37.8 104C32.4 105.5 24.3 99.4 17.5 99.3C10.8 99.3 5.4 105.3 0 111.4L0 0Z" fill="#004ee1"></path><path d="M74.3 0C73.7 4.5 73.2 9 69.9 12.3C66.6 15.7 60.6 17.9 58.3 21.2C55.9 24.5 57.3 29 56.9 32.9C56.6 36.7 54.4 40 53 44.5C51.7 49 51 54.8 47.7 56.9C44.4 59 38.4 57.4 34.5 59.8C30.6 62.1 28.8 68.3 25.2 69.3C21.6 70.3 16.2 66.3 11.7 66.2C7.2 66.2 3.6 70.2 0 74.3L0 0Z" fill="#005ef5"></path><path d="M37.1 0C36.9 2.2 36.6 4.5 35 6.2C33.3 7.8 30.3 8.9 29.1 10.6C28 12.3 28.7 14.5 28.5 16.4C28.3 18.4 27.2 20 26.5 22.3C25.8 24.5 25.5 27.4 23.9 28.4C22.2 29.5 19.2 28.7 17.3 29.9C15.3 31 14.4 34.1 12.6 34.7C10.8 35.2 8.1 33.1 5.8 33.1C3.6 33.1 1.8 35.1 0 37.1L0 0Z" fill="#0066ff"></path></g></svg>