<svg id="visual" viewBox="0 0 960 540" width="960" height="540" xmlns="http://www.w3.org/2000/svg" xmlns:xlink="http://www.w3.org/1999/xlink" version="1.1"><rect x="0" y="0" width="960" height="540" fill="#001220"></rect><defs><linearGradient id="grad1_0" x1="43.8%" y1="0%" x2="100%" y2="100%"><stop offset="14.444444444444446%" stop-color="#3070ca" stop-opacity="1"></stop><stop offset="85.55555555555554%" stop-color="#3070ca" stop-opacity="1"></stop></linearGradient></defs><defs><linearGradient id="grad1_1" x1="43.8%" y1="0%" x2="100%" y2="100%"><stop offset="14.444444444444446%" stop-color="#3070ca" stop-opacity="1"></stop><stop offset="85.55555555555554%" stop-color="#155da5" stop-opacity="1"></stop></linearGradient></defs><defs><linearGradient id="grad1_2" x1="43.8%" y1="0%" x2="100%" y2="100%"><stop offset="14.444444444444446%" stop-color="#004a81" stop-opacity="1"></stop><stop offset="85.55555555555554%" stop-color="#155da5" stop-opacity="1"></stop></linearGradient></defs><defs><linearGradient id="grad1_3" x1="43.8%" y1="0%" x2="100%" y2="100%"><stop offset="14.444444444444446%" stop-color="#004a81" stop-opacity="1"></stop><stop offset="85.55555555555554%" stop-color="#00375f" stop-opacity="1"></stop></linearGradient></defs><defs><linearGradient id="grad1_4" x1="43.8%" y1="0%" x2="100%" y2="100%"><stop offset="14.444444444444446%" stop-color="#00243e" stop-opacity="1"></stop><stop offset="85.55555555555554%" stop-color="#00375f" stop-opacity="1"></stop></linearGradient></defs><defs><linearGradient id="grad1_5" x1="43.8%" y1="0%" x2="100%" y2="100%"><stop offset="14.444444444444446%" stop-color="#00243e" stop-opacity="1"></stop><stop offset="85.55555555555554%" stop-color="#001220" stop-opacity="1"></stop></linearGradient></defs><defs><linearGradient id="grad2_0" x1="0%" y1="0%" x2="56.3%" y2="100%"><stop offset="14.444444444444446%" stop-color="#3070ca" stop-opacity="1"></stop><stop offset="85.55555555555554%" stop-color="#3070ca" stop-opacity="1"></stop></linearGradient></defs><defs><linearGradient id="grad2_1" x1="0%" y1="0%" x2="56.3%" y2="100%"><stop offset="14.444444444444446%" stop-color="#155da5" stop-opacity="1"></stop><stop offset="85.55555555555554%" stop-color="#3070ca" stop-opacity="1"></stop></linearGradient></defs><defs><linearGradient id="grad2_2" x1="0%" y1="0%" x2="56.3%" y2="100%"><stop offset="14.444444444444446%" stop-color="#155da5" stop-opacity="1"></stop><stop offset="85.55555555555554%" stop-color="#004a81" stop-opacity="1"></stop></linearGradient></defs><defs><linearGradient id="grad2_3" x1="0%" y1="0%" x2="56.3%" y2="100%"><stop offset="14.444444444444446%" stop-color="#00375f" stop-opacity="1"></stop><stop offset="85.55555555555554%" stop-color="#004a81" stop-opacity="1"></stop></linearGradient></defs><defs><linearGradient id="grad2_4" x1="0%" y1="0%" x2="56.3%" y2="100%"><stop offset="14.444444444444446%" stop-color="#00375f" stop-opacity="1"></stop><stop offset="85.55555555555554%" stop-color="#00243e" stop-opacity="1"></stop></linearGradient></defs><defs><linearGradient id="grad2_5" x1="0%" y1="0%" x2="56.3%" y2="100%"><stop offset="14.444444444444446%" stop-color="#001220" stop-opacity="1"></stop><stop offset="85.55555555555554%" stop-color="#00243e" stop-opacity="1"></stop></linearGradient></defs><g transform="translate(960, 0)"><path d="M0 297C-29.1 302.2 -58.2 307.5 -76.9 286.9C-95.6 266.3 -103.9 219.8 -109.5 189.7C-115.1 159.5 -117.8 145.8 -138.6 138.6C-159.3 131.4 -198.1 130.8 -199.2 115C-200.3 99.2 -163.8 68.3 -173.9 46.6C-183.9 24.9 -240.5 12.4 -297 0L0 0Z" fill="#021b2f"></path><path d="M0 247.5C-24.2 251.9 -48.5 256.2 -64.1 239.1C-79.7 221.9 -86.6 183.1 -91.2 158C-95.9 132.9 -98.2 121.5 -115.5 115.5C-132.8 109.5 -165.1 109 -166 95.8C-166.9 82.7 -136.5 56.9 -144.9 38.8C-153.3 20.7 -200.4 10.4 -247.5 0L0 0Z" fill="#002d4e"></path><path d="M0 198C-19.4 201.5 -38.8 205 -51.2 191.3C-63.7 177.5 -69.3 146.5 -73 126.4C-76.7 106.4 -78.6 97.2 -92.4 92.4C-106.2 87.6 -132 87.2 -132.8 76.7C-133.5 66.1 -109.2 45.5 -115.9 31.1C-122.6 16.6 -160.3 8.3 -198 0L0 0Z" fill="#004070"></path><path d="M0 148.5C-14.5 151.1 -29.1 153.7 -38.4 143.4C-47.8 133.1 -52 109.9 -54.7 94.8C-57.5 79.8 -58.9 72.9 -69.3 69.3C-79.7 65.7 -99 65.4 -99.6 57.5C-100.2 49.6 -81.9 34.1 -86.9 23.3C-92 12.4 -120.2 6.2 -148.5 0L0 0Z" fill="#085393"></path><path d="M0 99C-9.7 100.7 -19.4 102.5 -25.6 95.6C-31.9 88.8 -34.6 73.3 -36.5 63.2C-38.4 53.2 -39.3 48.6 -46.2 46.2C-53.1 43.8 -66 43.6 -66.4 38.3C-66.8 33.1 -54.6 22.8 -58 15.5C-61.3 8.3 -80.2 4.1 -99 0L0 0Z" fill="#2266b7"></path><path d="M0 49.5C-4.8 50.4 -9.7 51.2 -12.8 47.8C-15.9 44.4 -17.3 36.6 -18.2 31.6C-19.2 26.6 -19.6 24.3 -23.1 23.1C-26.6 21.9 -33 21.8 -33.2 19.2C-33.4 16.5 -27.3 11.4 -29 7.8C-30.7 4.1 -40.1 2.1 -49.5 0L0 0Z" fill="#3070ca"></path></g><g transform="translate(0, 540)"><path d="M0 -297C16.4 -247.1 32.8 -197.2 47.9 -178.7C62.9 -160.2 76.7 -173.2 109.5 -189.7C142.3 -206.2 194.3 -226.2 210 -210C225.7 -193.8 205.1 -141.5 187.9 -108.5C170.8 -75.5 157 -62 175.8 -47.1C194.6 -32.3 245.8 -16.1 297 0L0 0Z" fill="#021b2f"></path><path d="M0 -247.5C13.7 -205.9 27.4 -164.3 39.9 -148.9C52.5 -133.5 63.9 -144.3 91.2 -158C118.6 -171.8 161.9 -188.5 175 -175C188.1 -161.5 170.9 -117.9 156.6 -90.4C142.3 -62.9 130.9 -51.6 146.5 -39.3C162.1 -26.9 204.8 -13.4 247.5 0L0 0Z" fill="#002d4e"></path><path d="M0 -198C10.9 -164.7 21.9 -131.5 31.9 -119.1C42 -106.8 51.1 -115.4 73 -126.4C94.9 -137.4 129.5 -150.8 140 -140C150.5 -129.2 136.7 -94.3 125.3 -72.3C113.8 -50.4 104.7 -41.3 117.2 -31.4C129.7 -21.5 163.9 -10.8 198 0L0 0Z" fill="#004070"></path><path d="M0 -148.5C8.2 -123.5 16.4 -98.6 23.9 -89.3C31.5 -80.1 38.3 -86.6 54.7 -94.8C71.2 -103.1 97.2 -113.1 105 -105C112.8 -96.9 102.5 -70.7 94 -54.3C85.4 -37.8 78.5 -31 87.9 -23.6C97.3 -16.1 122.9 -8.1 148.5 0L0 0Z" fill="#085393"></path><path d="M0 -99C5.5 -82.4 10.9 -65.7 16 -59.6C21 -53.4 25.6 -57.7 36.5 -63.2C47.4 -68.7 64.8 -75.4 70 -70C75.2 -64.6 68.4 -47.2 62.6 -36.2C56.9 -25.2 52.3 -20.7 58.6 -15.7C64.9 -10.8 81.9 -5.4 99 0L0 0Z" fill="#2266b7"></path><path d="M0 -49.5C2.7 -41.2 5.5 -32.9 8 -29.8C10.5 -26.7 12.8 -28.9 18.2 -31.6C23.7 -34.4 32.4 -37.7 35 -35C37.6 -32.3 34.2 -23.6 31.3 -18.1C28.5 -12.6 26.2 -10.3 29.3 -7.9C32.4 -5.4 41 -2.7 49.5 0L0 0Z" fill="#3070ca"></path></g></svg>