<svg id="visual" viewBox="0 0 960 540" width="960" height="540" xmlns="http://www.w3.org/2000/svg" xmlns:xlink="http://www.w3.org/1999/xlink" version="1.1"><rect x="0" y="0" width="960" height="540" fill="#000000"></rect><defs><linearGradient id="grad1_0" x1="43.8%" y1="100%" x2="100%" y2="0%"><stop offset="14.444444444444446%" stop-color="#0066ff" stop-opacity="1"></stop><stop offset="85.55555555555554%" stop-color="#0066ff" stop-opacity="1"></stop></linearGradient></defs><defs><linearGradient id="grad1_1" x1="43.8%" y1="100%" x2="100%" y2="0%"><stop offset="14.444444444444446%" stop-color="#0066ff" stop-opacity="1"></stop><stop offset="85.55555555555554%" stop-color="#0056eb" stop-opacity="1"></stop></linearGradient></defs><defs><linearGradient id="grad1_2" x1="43.8%" y1="100%" x2="100%" y2="0%"><stop offset="14.444444444444446%" stop-color="#0046d7" stop-opacity="1"></stop><stop offset="85.55555555555554%" stop-color="#0056eb" stop-opacity="1"></stop></linearGradient></defs><defs><linearGradient id="grad1_3" x1="43.8%" y1="100%" x2="100%" y2="0%"><stop offset="14.444444444444446%" stop-color="#0046d7" stop-opacity="1"></stop><stop offset="85.55555555555554%" stop-color="#0038c3" stop-opacity="1"></stop></linearGradient></defs><defs><linearGradient id="grad1_4" x1="43.8%" y1="100%" x2="100%" y2="0%"><stop offset="14.444444444444446%" stop-color="#002ab0" stop-opacity="1"></stop><stop offset="85.55555555555554%" stop-color="#0038c3" stop-opacity="1"></stop></linearGradient></defs><defs><linearGradient id="grad1_5" x1="43.8%" y1="100%" x2="100%" y2="0%"><stop offset="14.444444444444446%" stop-color="#002ab0" stop-opacity="1"></stop><stop offset="85.55555555555554%" stop-color="#001e9d" stop-opacity="1"></stop></linearGradient></defs><defs><linearGradient id="grad1_6" x1="43.8%" y1="100%" x2="100%" y2="0%"><stop offset="14.444444444444446%" stop-color="#00138b" stop-opacity="1"></stop><stop offset="85.55555555555554%" stop-color="#001e9d" stop-opacity="1"></stop></linearGradient></defs><defs><linearGradient id="grad1_7" x1="43.8%" y1="100%" x2="100%" y2="0%"><stop offset="14.444444444444446%" stop-color="#00138b" stop-opacity="1"></stop><stop offset="85.55555555555554%" stop-color="#000000" stop-opacity="1"></stop></linearGradient></defs><defs><linearGradient id="grad2_0" x1="0%" y1="100%" x2="56.3%" y2="0%"><stop offset="14.444444444444446%" stop-color="#0066ff" stop-opacity="1"></stop><stop offset="85.55555555555554%" stop-color="#0066ff" stop-opacity="1"></stop></linearGradient></defs><defs><linearGradient id="grad2_1" x1="0%" y1="100%" x2="56.3%" y2="0%"><stop offset="14.444444444444446%" stop-color="#0056eb" stop-opacity="1"></stop><stop offset="85.55555555555554%" stop-color="#0066ff" stop-opacity="1"></stop></linearGradient></defs><defs><linearGradient id="grad2_2" x1="0%" y1="100%" x2="56.3%" y2="0%"><stop offset="14.444444444444446%" stop-color="#0056eb" stop-opacity="1"></stop><stop offset="85.55555555555554%" stop-color="#0046d7" stop-opacity="1"></stop></linearGradient></defs><defs><linearGradient id="grad2_3" x1="0%" y1="100%" x2="56.3%" y2="0%"><stop offset="14.444444444444446%" stop-color="#0038c3" stop-opacity="1"></stop><stop offset="85.55555555555554%" stop-color="#0046d7" stop-opacity="1"></stop></linearGradient></defs><defs><linearGradient id="grad2_4" x1="0%" y1="100%" x2="56.3%" y2="0%"><stop offset="14.444444444444446%" stop-color="#0038c3" stop-opacity="1"></stop><stop offset="85.55555555555554%" stop-color="#002ab0" stop-opacity="1"></stop></linearGradient></defs><defs><linearGradient id="grad2_5" x1="0%" y1="100%" x2="56.3%" y2="0%"><stop offset="14.444444444444446%" stop-color="#001e9d" stop-opacity="1"></stop><stop offset="85.55555555555554%" stop-color="#002ab0" stop-opacity="1"></stop></linearGradient></defs><defs><linearGradient id="grad2_6" x1="0%" y1="100%" x2="56.3%" y2="0%"><stop offset="14.444444444444446%" stop-color="#001e9d" stop-opacity="1"></stop><stop offset="85.55555555555554%" stop-color="#00138b" stop-opacity="1"></stop></linearGradient></defs><defs><linearGradient id="grad2_7" x1="0%" y1="100%" x2="56.3%" y2="0%"><stop offset="14.444444444444446%" stop-color="#000000" stop-opacity="1"></stop><stop offset="85.55555555555554%" stop-color="#00138b" stop-opacity="1"></stop></linearGradient></defs><g transform="translate(960, 540)"><path d="M-297 0C-291.6 -16.7 -286.1 -33.4 -281.7 -49.7C-277.2 -65.9 -273.6 -81.6 -270.6 -98.5C-267.6 -115.4 -265.2 -133.4 -257.2 -148.5C-249.3 -163.6 -235.8 -175.6 -222.9 -187.1C-210 -198.5 -197.7 -209.2 -185.8 -221.4C-173.9 -233.6 -162.4 -247.3 -148 -256.3C-133.6 -265.4 -116.3 -269.8 -99.5 -273.5C-82.8 -277.1 -66.5 -279.8 -50 -283.6C-33.5 -287.4 -16.8 -292.2 0 -297L0 0Z" fill="#000b82"></path><path d="M-259.9 0C-255.1 -14.6 -250.4 -29.3 -246.4 -43.5C-242.5 -57.7 -239.4 -71.4 -236.8 -86.2C-234.2 -101 -232 -116.8 -225.1 -129.9C-218.1 -143.1 -206.3 -153.7 -195.1 -163.7C-183.8 -173.6 -173 -183 -162.5 -193.7C-152.1 -204.4 -142.1 -216.4 -129.5 -224.3C-116.9 -232.2 -101.8 -236.1 -87.1 -239.3C-72.4 -242.4 -58.2 -244.9 -43.8 -248.2C-29.3 -251.5 -14.7 -255.7 0 -259.9L0 0Z" fill="#001894"></path><path d="M-222.7 0C-218.7 -12.5 -214.6 -25.1 -211.2 -37.2C-207.9 -49.4 -205.2 -61.2 -203 -73.9C-200.7 -86.5 -198.9 -100.1 -192.9 -111.4C-186.9 -122.7 -176.9 -131.7 -167.2 -140.3C-157.5 -148.8 -148.3 -156.9 -139.3 -166C-130.4 -175.2 -121.8 -185.5 -111 -192.3C-100.2 -199.1 -87.2 -202.4 -74.6 -205.1C-62.1 -207.8 -49.9 -209.9 -37.5 -212.7C-25.1 -215.6 -12.6 -219.2 0 -222.7L0 0Z" fill="#0024a7"></path><path d="M-185.6 0C-182.2 -10.4 -178.8 -20.9 -176 -31C-173.2 -41.2 -171 -51 -169.1 -61.6C-167.3 -72.1 -165.7 -83.4 -160.8 -92.8C-155.8 -102.2 -147.4 -109.8 -139.3 -116.9C-131.3 -124 -123.5 -130.7 -116.1 -138.4C-108.7 -146 -101.5 -154.6 -92.5 -160.2C-83.5 -165.9 -72.7 -168.7 -62.2 -170.9C-51.7 -173.2 -41.6 -174.9 -31.3 -177.3C-20.9 -179.6 -10.5 -182.6 0 -185.6L0 0Z" fill="#0031ba"></path><path d="M-148.5 0C-145.8 -8.4 -143.1 -16.7 -140.8 -24.8C-138.6 -32.9 -136.8 -40.8 -135.3 -49.3C-133.8 -57.7 -132.6 -66.7 -128.6 -74.3C-124.6 -81.8 -117.9 -87.8 -111.5 -93.5C-105 -99.2 -98.8 -104.6 -92.9 -110.7C-86.9 -116.8 -81.2 -123.6 -74 -128.2C-66.8 -132.7 -58.2 -134.9 -49.8 -136.7C-41.4 -138.5 -33.3 -139.9 -25 -141.8C-16.8 -143.7 -8.4 -146.1 0 -148.5L0 0Z" fill="#003fcd"></path><path d="M-111.4 0C-109.3 -6.3 -107.3 -12.5 -105.6 -18.6C-103.9 -24.7 -102.6 -30.6 -101.5 -36.9C-100.4 -43.3 -99.4 -50 -96.5 -55.7C-93.5 -61.3 -88.4 -65.9 -83.6 -70.1C-78.8 -74.4 -74.1 -78.4 -69.7 -83C-65.2 -87.6 -60.9 -92.7 -55.5 -96.1C-50.1 -99.5 -43.6 -101.2 -37.3 -102.5C-31 -103.9 -24.9 -104.9 -18.8 -106.4C-12.6 -107.8 -6.3 -109.6 0 -111.4L0 0Z" fill="#004ee1"></path><path d="M-74.2 0C-72.9 -4.2 -71.5 -8.4 -70.4 -12.4C-69.3 -16.5 -68.4 -20.4 -67.7 -24.6C-66.9 -28.8 -66.3 -33.4 -64.3 -37.1C-62.3 -40.9 -59 -43.9 -55.7 -46.8C-52.5 -49.6 -49.4 -52.3 -46.4 -55.3C-43.5 -58.4 -40.6 -61.8 -37 -64.1C-33.4 -66.4 -29.1 -67.5 -24.9 -68.4C-20.7 -69.3 -16.6 -70 -12.5 -70.9C-8.4 -71.9 -4.2 -73.1 0 -74.2L0 0Z" fill="#005ef5"></path><path d="M-37.1 0C-36.4 -2.1 -35.8 -4.2 -35.2 -6.2C-34.6 -8.2 -34.2 -10.2 -33.8 -12.3C-33.5 -14.4 -33.1 -16.7 -32.2 -18.6C-31.2 -20.4 -29.5 -22 -27.9 -23.4C-26.3 -24.8 -24.7 -26.1 -23.2 -27.7C-21.7 -29.2 -20.3 -30.9 -18.5 -32C-16.7 -33.2 -14.5 -33.7 -12.4 -34.2C-10.3 -34.6 -8.3 -35 -6.3 -35.5C-4.2 -35.9 -2.1 -36.5 0 -37.1L0 0Z" fill="#0066ff"></path></g><g transform="translate(0, 0)"><path d="M297 0C294.3 16.9 291.6 33.7 289.5 51.1C287.5 68.4 286.1 86.2 279.1 101.6C272.1 117 259.5 130 249.4 144C239.3 158 231.7 173.1 220.6 185.1C209.5 197.1 195 206 182.6 217.6C170.1 229.1 159.7 243.2 146.5 253.7C133.3 264.3 117.2 271.2 100.9 277.2C84.6 283.2 68.2 288.4 51.4 291.5C34.6 294.7 17.3 295.8 0 297L0 0Z" fill="#000b82"></path><path d="M259.9 0C257.5 14.8 255.1 29.5 253.3 44.7C251.5 59.8 250.3 75.4 244.2 88.9C238.1 102.4 227.1 113.7 218.2 126C209.4 138.3 202.7 151.5 193 162C183.3 172.5 170.6 180.3 159.7 190.4C148.8 200.4 139.8 212.8 128.2 222C116.6 231.2 102.5 237.3 88.3 242.6C74.1 247.8 59.7 252.3 45 255.1C30.2 257.8 15.1 258.8 0 259.9L0 0Z" fill="#001894"></path><path d="M222.8 0C220.7 12.6 218.7 25.3 217.2 38.3C215.6 51.3 214.6 64.6 209.3 76.2C204.1 87.7 194.6 97.5 187.1 108C179.5 118.5 173.8 129.8 165.5 138.8C157.2 147.8 146.3 154.5 136.9 163.2C127.6 171.8 119.8 182.4 109.9 190.3C99.9 198.2 87.9 203.4 75.7 207.9C63.5 212.4 51.2 216.3 38.5 218.6C25.9 221 13 221.9 0 222.8L0 0Z" fill="#0024a7"></path><path d="M185.6 0C183.9 10.5 182.2 21.1 181 31.9C179.7 42.7 178.8 53.9 174.4 63.5C170.1 73.1 162.2 81.2 155.9 90C149.6 98.8 144.8 108.2 137.9 115.7C131 123.2 121.9 128.8 114.1 136C106.3 143.2 99.8 152 91.6 158.6C83.3 165.2 73.2 169.5 63.1 173.3C52.9 177 42.6 180.2 32.1 182.2C21.6 184.2 10.8 184.9 0 185.6L0 0Z" fill="#0031ba"></path><path d="M148.5 0C147.1 8.4 145.8 16.9 144.8 25.5C143.7 34.2 143 43.1 139.5 50.8C136 58.5 129.8 65 124.7 72C119.7 79 115.8 86.6 110.3 92.6C104.8 98.6 97.5 103 91.3 108.8C85.1 114.5 79.9 121.6 73.3 126.9C66.6 132.1 58.6 135.6 50.4 138.6C42.3 141.6 34.1 144.2 25.7 145.8C17.3 147.3 8.6 147.9 0 148.5L0 0Z" fill="#003fcd"></path><path d="M111.4 0C110.4 6.3 109.3 12.6 108.6 19.1C107.8 25.6 107.3 32.3 104.7 38.1C102 43.9 97.3 48.7 93.5 54C89.7 59.3 86.9 64.9 82.7 69.4C78.6 73.9 73.1 77.3 68.5 81.6C63.8 85.9 59.9 91.2 54.9 95.2C50 99.1 43.9 101.7 37.8 104C31.7 106.2 25.6 108.1 19.3 109.3C13 110.5 6.5 110.9 0 111.4L0 0Z" fill="#004ee1"></path><path d="M74.3 0C73.6 4.2 72.9 8.4 72.4 12.8C71.9 17.1 71.5 21.5 69.8 25.4C68 29.2 64.9 32.5 62.4 36C59.8 39.5 57.9 43.3 55.2 46.3C52.4 49.3 48.8 51.5 45.6 54.4C42.5 57.3 39.9 60.8 36.6 63.4C33.3 66.1 29.3 67.8 25.2 69.3C21.2 70.8 17.1 72.1 12.8 72.9C8.6 73.7 4.3 74 0 74.3L0 0Z" fill="#005ef5"></path><path d="M37.1 0C36.8 2.1 36.4 4.2 36.2 6.4C35.9 8.5 35.8 10.8 34.9 12.7C34 14.6 32.4 16.2 31.2 18C29.9 19.8 29 21.6 27.6 23.1C26.2 24.6 24.4 25.8 22.8 27.2C21.3 28.6 20 30.4 18.3 31.7C16.7 33 14.6 33.9 12.6 34.7C10.6 35.4 8.5 36 6.4 36.4C4.3 36.8 2.2 37 0 37.1L0 0Z" fill="#0066ff"></path></g></svg>