<svg id="visual" viewBox="0 0 960 540" width="960" height="540" xmlns="http://www.w3.org/2000/svg" xmlns:xlink="http://www.w3.org/1999/xlink" version="1.1"><rect x="0" y="0" width="960" height="540" fill="#001220"></rect><defs><linearGradient id="grad1_0" x1="43.8%" y1="0%" x2="100%" y2="100%"><stop offset="14.444444444444446%" stop-color="#3070ca" stop-opacity="1"></stop><stop offset="85.55555555555554%" stop-color="#3070ca" stop-opacity="1"></stop></linearGradient></defs><defs><linearGradient id="grad1_1" x1="43.8%" y1="0%" x2="100%" y2="100%"><stop offset="14.444444444444446%" stop-color="#3070ca" stop-opacity="1"></stop><stop offset="85.55555555555554%" stop-color="#155da5" stop-opacity="1"></stop></linearGradient></defs><defs><linearGradient id="grad1_2" x1="43.8%" y1="0%" x2="100%" y2="100%"><stop offset="14.444444444444446%" stop-color="#004a81" stop-opacity="1"></stop><stop offset="85.55555555555554%" stop-color="#155da5" stop-opacity="1"></stop></linearGradient></defs><defs><linearGradient id="grad1_3" x1="43.8%" y1="0%" x2="100%" y2="100%"><stop offset="14.444444444444446%" stop-color="#004a81" stop-opacity="1"></stop><stop offset="85.55555555555554%" stop-color="#00375f" stop-opacity="1"></stop></linearGradient></defs><defs><linearGradient id="grad1_4" x1="43.8%" y1="0%" x2="100%" y2="100%"><stop offset="14.444444444444446%" stop-color="#00243e" stop-opacity="1"></stop><stop offset="85.55555555555554%" stop-color="#00375f" stop-opacity="1"></stop></linearGradient></defs><defs><linearGradient id="grad1_5" x1="43.8%" y1="0%" x2="100%" y2="100%"><stop offset="14.444444444444446%" stop-color="#00243e" stop-opacity="1"></stop><stop offset="85.55555555555554%" stop-color="#001220" stop-opacity="1"></stop></linearGradient></defs><defs><linearGradient id="grad2_0" x1="0%" y1="0%" x2="56.3%" y2="100%"><stop offset="14.444444444444446%" stop-color="#3070ca" stop-opacity="1"></stop><stop offset="85.55555555555554%" stop-color="#3070ca" stop-opacity="1"></stop></linearGradient></defs><defs><linearGradient id="grad2_1" x1="0%" y1="0%" x2="56.3%" y2="100%"><stop offset="14.444444444444446%" stop-color="#155da5" stop-opacity="1"></stop><stop offset="85.55555555555554%" stop-color="#3070ca" stop-opacity="1"></stop></linearGradient></defs><defs><linearGradient id="grad2_2" x1="0%" y1="0%" x2="56.3%" y2="100%"><stop offset="14.444444444444446%" stop-color="#155da5" stop-opacity="1"></stop><stop offset="85.55555555555554%" stop-color="#004a81" stop-opacity="1"></stop></linearGradient></defs><defs><linearGradient id="grad2_3" x1="0%" y1="0%" x2="56.3%" y2="100%"><stop offset="14.444444444444446%" stop-color="#00375f" stop-opacity="1"></stop><stop offset="85.55555555555554%" stop-color="#004a81" stop-opacity="1"></stop></linearGradient></defs><defs><linearGradient id="grad2_4" x1="0%" y1="0%" x2="56.3%" y2="100%"><stop offset="14.444444444444446%" stop-color="#00375f" stop-opacity="1"></stop><stop offset="85.55555555555554%" stop-color="#00243e" stop-opacity="1"></stop></linearGradient></defs><defs><linearGradient id="grad2_5" x1="0%" y1="0%" x2="56.3%" y2="100%"><stop offset="14.444444444444446%" stop-color="#001220" stop-opacity="1"></stop><stop offset="85.55555555555554%" stop-color="#00243e" stop-opacity="1"></stop></linearGradient></defs><g transform="translate(960, 0)"><path d="M0 297C-17.6 264.1 -35.2 231.1 -61.6 229.9C-88 228.6 -123.4 259.1 -148.5 257.2C-173.6 255.3 -188.6 221.2 -186.7 186.7C-184.8 152.2 -166 117.3 -168.9 97.5C-171.7 77.7 -196.2 73 -221.2 59.3C-246.2 45.5 -271.6 22.8 -297 0L0 0Z" fill="#021b2f"></path><path d="M0 247.5C-14.6 220.1 -29.3 192.6 -51.3 191.6C-73.4 190.5 -102.8 215.9 -123.7 214.3C-144.7 212.8 -157.2 184.3 -155.6 155.6C-154 126.8 -138.3 97.7 -140.7 81.3C-143.1 64.8 -163.5 60.8 -184.3 49.4C-205.1 37.9 -226.3 19 -247.5 0L0 0Z" fill="#002d4e"></path><path d="M0 198C-11.7 176 -23.4 154.1 -41.1 153.3C-58.7 152.4 -82.2 172.7 -99 171.5C-115.8 170.2 -125.7 147.5 -124.5 124.5C-123.2 101.4 -110.7 78.2 -112.6 65C-114.5 51.8 -130.8 48.7 -147.5 39.5C-164.1 30.4 -181.1 15.2 -198 0L0 0Z" fill="#004070"></path><path d="M0 148.5C-8.8 132 -17.6 115.6 -30.8 114.9C-44 114.3 -61.7 129.5 -74.2 128.6C-86.8 127.7 -94.3 110.6 -93.3 93.3C-92.4 76.1 -83 58.6 -84.4 48.8C-85.9 38.9 -98.1 36.5 -110.6 29.6C-123.1 22.8 -135.8 11.4 -148.5 0L0 0Z" fill="#085393"></path><path d="M0 99C-5.9 88 -11.7 77 -20.5 76.6C-29.3 76.2 -41.1 86.4 -49.5 85.7C-57.9 85.1 -62.9 73.7 -62.2 62.2C-61.6 50.7 -55.3 39.1 -56.3 32.5C-57.2 25.9 -65.4 24.3 -73.7 19.8C-82.1 15.2 -90.5 7.6 -99 0L0 0Z" fill="#2266b7"></path><path d="M0 49.5C-2.9 44 -5.9 38.5 -10.3 38.3C-14.7 38.1 -20.6 43.2 -24.7 42.9C-28.9 42.6 -31.4 36.9 -31.1 31.1C-30.8 25.4 -27.7 19.5 -28.1 16.3C-28.6 13 -32.7 12.2 -36.9 9.9C-41 7.6 -45.3 3.8 -49.5 0L0 0Z" fill="#3070ca"></path></g><g transform="translate(0, 540)"><path d="M0 -297C9.9 -236.4 19.9 -175.8 47.6 -177.7C75.4 -179.6 121 -244.1 148.5 -257.2C176 -270.4 185.5 -232.3 207.9 -207.9C230.3 -183.5 265.7 -172.9 252 -145.5C238.3 -118.1 175.5 -73.9 174.8 -46.8C174.1 -19.8 235.6 -9.9 297 0L0 0Z" fill="#021b2f"></path><path d="M0 -247.5C8.3 -197 16.6 -146.5 39.7 -148.1C62.8 -149.7 100.8 -203.4 123.7 -214.3C146.7 -225.3 154.6 -193.5 173.2 -173.2C191.9 -152.9 221.4 -144.1 210 -121.3C198.6 -98.4 146.3 -61.6 145.7 -39C145.1 -16.5 196.3 -8.2 247.5 0L0 0Z" fill="#002d4e"></path><path d="M0 -198C6.6 -157.6 13.2 -117.2 31.7 -118.5C50.3 -119.8 80.7 -162.7 99 -171.5C117.3 -180.2 123.6 -154.8 138.6 -138.6C153.5 -122.4 177.1 -115.3 168 -97C158.9 -78.7 117 -49.3 116.6 -31.2C116.1 -13.2 157 -6.6 198 0L0 0Z" fill="#004070"></path><path d="M0 -148.5C5 -118.2 9.9 -87.9 23.8 -88.9C37.7 -89.8 60.5 -122 74.2 -128.6C88 -135.2 92.7 -116.1 103.9 -103.9C115.2 -91.8 132.9 -86.5 126 -72.8C119.2 -59 87.8 -36.9 87.4 -23.4C87.1 -9.9 117.8 -4.9 148.5 0L0 0Z" fill="#085393"></path><path d="M0 -99C3.3 -78.8 6.6 -58.6 15.9 -59.2C25.1 -59.9 40.3 -81.4 49.5 -85.7C58.7 -90.1 61.8 -77.4 69.3 -69.3C76.8 -61.2 88.6 -57.6 84 -48.5C79.4 -39.4 58.5 -24.6 58.3 -15.6C58 -6.6 78.5 -3.3 99 0L0 0Z" fill="#2266b7"></path><path d="M0 -49.5C1.7 -39.4 3.3 -29.3 7.9 -29.6C12.6 -29.9 20.2 -40.7 24.7 -42.9C29.3 -45.1 30.9 -38.7 34.6 -34.6C38.4 -30.6 44.3 -28.8 42 -24.3C39.7 -19.7 29.3 -12.3 29.1 -7.8C29 -3.3 39.3 -1.6 49.5 0L0 0Z" fill="#3070ca"></path></g></svg>