<svg id="visual" viewBox="0 0 960 540" width="960" height="540" xmlns="http://www.w3.org/2000/svg" xmlns:xlink="http://www.w3.org/1999/xlink" version="1.1"><rect x="0" y="0" width="960" height="540" fill="#000000"></rect><defs><linearGradient id="grad1_0" x1="43.8%" y1="100%" x2="100%" y2="0%"><stop offset="14.444444444444446%" stop-color="#0066ff" stop-opacity="1"></stop><stop offset="85.55555555555554%" stop-color="#0066ff" stop-opacity="1"></stop></linearGradient></defs><defs><linearGradient id="grad1_1" x1="43.8%" y1="100%" x2="100%" y2="0%"><stop offset="14.444444444444446%" stop-color="#0066ff" stop-opacity="1"></stop><stop offset="85.55555555555554%" stop-color="#0056eb" stop-opacity="1"></stop></linearGradient></defs><defs><linearGradient id="grad1_2" x1="43.8%" y1="100%" x2="100%" y2="0%"><stop offset="14.444444444444446%" stop-color="#0046d7" stop-opacity="1"></stop><stop offset="85.55555555555554%" stop-color="#0056eb" stop-opacity="1"></stop></linearGradient></defs><defs><linearGradient id="grad1_3" x1="43.8%" y1="100%" x2="100%" y2="0%"><stop offset="14.444444444444446%" stop-color="#0046d7" stop-opacity="1"></stop><stop offset="85.55555555555554%" stop-color="#0038c3" stop-opacity="1"></stop></linearGradient></defs><defs><linearGradient id="grad1_4" x1="43.8%" y1="100%" x2="100%" y2="0%"><stop offset="14.444444444444446%" stop-color="#002ab0" stop-opacity="1"></stop><stop offset="85.55555555555554%" stop-color="#0038c3" stop-opacity="1"></stop></linearGradient></defs><defs><linearGradient id="grad1_5" x1="43.8%" y1="100%" x2="100%" y2="0%"><stop offset="14.444444444444446%" stop-color="#002ab0" stop-opacity="1"></stop><stop offset="85.55555555555554%" stop-color="#001e9d" stop-opacity="1"></stop></linearGradient></defs><defs><linearGradient id="grad1_6" x1="43.8%" y1="100%" x2="100%" y2="0%"><stop offset="14.444444444444446%" stop-color="#00138b" stop-opacity="1"></stop><stop offset="85.55555555555554%" stop-color="#001e9d" stop-opacity="1"></stop></linearGradient></defs><defs><linearGradient id="grad1_7" x1="43.8%" y1="100%" x2="100%" y2="0%"><stop offset="14.444444444444446%" stop-color="#00138b" stop-opacity="1"></stop><stop offset="85.55555555555554%" stop-color="#000000" stop-opacity="1"></stop></linearGradient></defs><defs><linearGradient id="grad2_0" x1="0%" y1="100%" x2="56.3%" y2="0%"><stop offset="14.444444444444446%" stop-color="#0066ff" stop-opacity="1"></stop><stop offset="85.55555555555554%" stop-color="#0066ff" stop-opacity="1"></stop></linearGradient></defs><defs><linearGradient id="grad2_1" x1="0%" y1="100%" x2="56.3%" y2="0%"><stop offset="14.444444444444446%" stop-color="#0056eb" stop-opacity="1"></stop><stop offset="85.55555555555554%" stop-color="#0066ff" stop-opacity="1"></stop></linearGradient></defs><defs><linearGradient id="grad2_2" x1="0%" y1="100%" x2="56.3%" y2="0%"><stop offset="14.444444444444446%" stop-color="#0056eb" stop-opacity="1"></stop><stop offset="85.55555555555554%" stop-color="#0046d7" stop-opacity="1"></stop></linearGradient></defs><defs><linearGradient id="grad2_3" x1="0%" y1="100%" x2="56.3%" y2="0%"><stop offset="14.444444444444446%" stop-color="#0038c3" stop-opacity="1"></stop><stop offset="85.55555555555554%" stop-color="#0046d7" stop-opacity="1"></stop></linearGradient></defs><defs><linearGradient id="grad2_4" x1="0%" y1="100%" x2="56.3%" y2="0%"><stop offset="14.444444444444446%" stop-color="#0038c3" stop-opacity="1"></stop><stop offset="85.55555555555554%" stop-color="#002ab0" stop-opacity="1"></stop></linearGradient></defs><defs><linearGradient id="grad2_5" x1="0%" y1="100%" x2="56.3%" y2="0%"><stop offset="14.444444444444446%" stop-color="#001e9d" stop-opacity="1"></stop><stop offset="85.55555555555554%" stop-color="#002ab0" stop-opacity="1"></stop></linearGradient></defs><defs><linearGradient id="grad2_6" x1="0%" y1="100%" x2="56.3%" y2="0%"><stop offset="14.444444444444446%" stop-color="#001e9d" stop-opacity="1"></stop><stop offset="85.55555555555554%" stop-color="#00138b" stop-opacity="1"></stop></linearGradient></defs><defs><linearGradient id="grad2_7" x1="0%" y1="100%" x2="56.3%" y2="0%"><stop offset="14.444444444444446%" stop-color="#000000" stop-opacity="1"></stop><stop offset="85.55555555555554%" stop-color="#00138b" stop-opacity="1"></stop></linearGradient></defs><g transform="translate(960, 540)"><path d="M-324 0C-323.6 -28.9 -323.1 -57.8 -313 -83.9C-302.8 -109.9 -282.9 -133.2 -260.7 -150.5C-238.4 -167.8 -213.9 -179.3 -192.3 -192.3C-170.8 -205.4 -152.3 -220.1 -132.5 -229.5C-112.7 -238.9 -91.4 -243 -69.1 -257.9C-46.8 -272.8 -23.4 -298.4 0 -324L0 0Z" fill="#000b82"></path><path d="M-283.5 0C-283.1 -25.3 -282.7 -50.6 -273.8 -73.4C-264.9 -96.2 -247.5 -116.5 -228.1 -131.7C-208.6 -146.9 -187.1 -156.9 -168.3 -168.3C-149.5 -179.7 -133.3 -192.6 -115.9 -200.8C-98.6 -209 -80 -212.7 -60.5 -225.7C-40.9 -238.7 -20.5 -261.1 0 -283.5L0 0Z" fill="#001894"></path><path d="M-243 0C-242.7 -21.7 -242.3 -43.3 -234.7 -62.9C-227.1 -82.4 -212.2 -99.9 -195.5 -112.9C-178.8 -125.9 -160.4 -134.5 -144.2 -144.2C-128.1 -154 -114.3 -165.1 -99.4 -172.1C-84.5 -179.2 -68.6 -182.3 -51.8 -193.4C-35.1 -204.6 -17.5 -223.8 0 -243L0 0Z" fill="#0024a7"></path><path d="M-202.5 0C-202.2 -18.1 -202 -36.1 -195.6 -52.4C-189.2 -68.7 -176.8 -83.2 -162.9 -94.1C-149 -104.9 -133.7 -112 -120.2 -120.2C-106.8 -128.4 -95.2 -137.6 -82.8 -143.4C-70.4 -149.3 -57.1 -151.9 -43.2 -161.2C-29.2 -170.5 -14.6 -186.5 0 -202.5L0 0Z" fill="#0031ba"></path><path d="M-162 0C-161.8 -14.4 -161.6 -28.9 -156.5 -41.9C-151.4 -55 -141.5 -66.6 -130.3 -75.3C-119.2 -83.9 -106.9 -89.6 -96.2 -96.2C-85.4 -102.7 -76.2 -110 -66.3 -114.7C-56.3 -119.5 -45.7 -121.5 -34.6 -129C-23.4 -136.4 -11.7 -149.2 0 -162L0 0Z" fill="#003fcd"></path><path d="M-121.5 0C-121.3 -10.8 -121.2 -21.7 -117.4 -31.4C-113.5 -41.2 -106.1 -49.9 -97.8 -56.4C-89.4 -62.9 -80.2 -67.2 -72.1 -72.1C-64.1 -77 -57.1 -82.5 -49.7 -86.1C-42.2 -89.6 -34.3 -91.1 -25.9 -96.7C-17.5 -102.3 -8.8 -111.9 0 -121.5L0 0Z" fill="#004ee1"></path><path d="M-81 0C-80.9 -7.2 -80.8 -14.4 -78.2 -21C-75.7 -27.5 -70.7 -33.3 -65.2 -37.6C-59.6 -42 -53.5 -44.8 -48.1 -48.1C-42.7 -51.3 -38.1 -55 -33.1 -57.4C-28.2 -59.7 -22.9 -60.8 -17.3 -64.5C-11.7 -68.2 -5.8 -74.6 0 -81L0 0Z" fill="#005ef5"></path><path d="M-40.5 0C-40.4 -3.6 -40.4 -7.2 -39.1 -10.5C-37.8 -13.7 -35.4 -16.6 -32.6 -18.8C-29.8 -21 -26.7 -22.4 -24 -24C-21.4 -25.7 -19 -27.5 -16.6 -28.7C-14.1 -29.9 -11.4 -30.4 -8.6 -32.2C-5.8 -34.1 -2.9 -37.3 0 -40.5L0 0Z" fill="#0066ff"></path></g><g transform="translate(0, 0)"><path d="M324 0C299.5 22.3 275 44.6 268.5 72C262 99.3 273.6 131.8 260.7 150.5C247.8 169.2 210.5 174.2 188.1 188.1C165.7 202 158.2 224.9 144 249.4C129.8 274 109 300.2 83.9 313C58.7 325.7 29.4 324.8 0 324L0 0Z" fill="#000b82"></path><path d="M283.5 0C262.1 19.5 240.6 39 235 63C229.3 86.9 239.4 115.3 228.1 131.7C216.8 148.1 184.2 152.4 164.6 164.6C145 176.8 138.4 196.7 126 218.2C113.6 239.7 95.3 262.7 73.4 273.8C51.4 285 25.7 284.2 0 283.5L0 0Z" fill="#001894"></path><path d="M243 0C224.6 16.7 206.3 33.4 201.4 54C196.5 74.5 205.2 98.8 195.5 112.9C185.8 126.9 157.9 130.6 141.1 141.1C124.3 151.5 118.6 168.6 108 187.1C97.4 205.5 81.7 225.2 62.9 234.7C44.1 244.3 22 243.6 0 243L0 0Z" fill="#0024a7"></path><path d="M202.5 0C187.2 13.9 171.9 27.9 167.8 45C163.8 62.1 171 82.4 162.9 94.1C154.9 105.8 131.6 108.9 117.6 117.6C103.6 126.3 98.9 140.5 90 155.9C81.1 171.2 68.1 187.7 52.4 195.6C36.7 203.5 18.4 203 0 202.5L0 0Z" fill="#0031ba"></path><path d="M162 0C149.8 11.1 137.5 22.3 134.3 36C131 49.7 136.8 65.9 130.3 75.2C123.9 84.6 105.2 87.1 94 94C82.8 101 79.1 112.4 72 124.7C64.9 137 54.5 150.1 41.9 156.5C29.4 162.8 14.7 162.4 0 162L0 0Z" fill="#003fcd"></path><path d="M121.5 0C112.3 8.4 103.1 16.7 100.7 27C98.3 37.2 102.6 49.4 97.8 56.4C92.9 63.5 78.9 65.3 70.5 70.5C62.1 75.8 59.3 84.3 54 93.5C48.7 102.7 40.9 112.6 31.4 117.4C22 122.1 11 121.8 0 121.5L0 0Z" fill="#004ee1"></path><path d="M81 0C74.9 5.6 68.8 11.1 67.1 18C65.5 24.8 68.4 32.9 65.2 37.6C61.9 42.3 52.6 43.5 47 47C41.4 50.5 39.5 56.2 36 62.4C32.5 68.5 27.2 75.1 21 78.2C14.7 81.4 7.3 81.2 0 81L0 0Z" fill="#005ef5"></path><path d="M40.5 0C37.4 2.8 34.4 5.6 33.6 9C32.8 12.4 34.2 16.5 32.6 18.8C31 21.2 26.3 21.8 23.5 23.5C20.7 25.3 19.8 28.1 18 31.2C16.2 34.2 13.6 37.5 10.5 39.1C7.3 40.7 3.7 40.6 0 40.5L0 0Z" fill="#0066ff"></path></g></svg>