<svg id="visual" viewBox="0 0 960 540" width="960" height="540" xmlns="http://www.w3.org/2000/svg" xmlns:xlink="http://www.w3.org/1999/xlink" version="1.1"><rect x="0" y="0" width="960" height="540" fill="#000000"></rect><defs><linearGradient id="grad1_0" x1="43.8%" y1="100%" x2="100%" y2="0%"><stop offset="14.444444444444446%" stop-color="#0066ff" stop-opacity="1"></stop><stop offset="85.55555555555554%" stop-color="#0066ff" stop-opacity="1"></stop></linearGradient></defs><defs><linearGradient id="grad1_1" x1="43.8%" y1="100%" x2="100%" y2="0%"><stop offset="14.444444444444446%" stop-color="#0066ff" stop-opacity="1"></stop><stop offset="85.55555555555554%" stop-color="#0056eb" stop-opacity="1"></stop></linearGradient></defs><defs><linearGradient id="grad1_2" x1="43.8%" y1="100%" x2="100%" y2="0%"><stop offset="14.444444444444446%" stop-color="#0046d7" stop-opacity="1"></stop><stop offset="85.55555555555554%" stop-color="#0056eb" stop-opacity="1"></stop></linearGradient></defs><defs><linearGradient id="grad1_3" x1="43.8%" y1="100%" x2="100%" y2="0%"><stop offset="14.444444444444446%" stop-color="#0046d7" stop-opacity="1"></stop><stop offset="85.55555555555554%" stop-color="#0038c3" stop-opacity="1"></stop></linearGradient></defs><defs><linearGradient id="grad1_4" x1="43.8%" y1="100%" x2="100%" y2="0%"><stop offset="14.444444444444446%" stop-color="#002ab0" stop-opacity="1"></stop><stop offset="85.55555555555554%" stop-color="#0038c3" stop-opacity="1"></stop></linearGradient></defs><defs><linearGradient id="grad1_5" x1="43.8%" y1="100%" x2="100%" y2="0%"><stop offset="14.444444444444446%" stop-color="#002ab0" stop-opacity="1"></stop><stop offset="85.55555555555554%" stop-color="#001e9d" stop-opacity="1"></stop></linearGradient></defs><defs><linearGradient id="grad1_6" x1="43.8%" y1="100%" x2="100%" y2="0%"><stop offset="14.444444444444446%" stop-color="#00138b" stop-opacity="1"></stop><stop offset="85.55555555555554%" stop-color="#001e9d" stop-opacity="1"></stop></linearGradient></defs><defs><linearGradient id="grad1_7" x1="43.8%" y1="100%" x2="100%" y2="0%"><stop offset="14.444444444444446%" stop-color="#00138b" stop-opacity="1"></stop><stop offset="85.55555555555554%" stop-color="#000000" stop-opacity="1"></stop></linearGradient></defs><defs><linearGradient id="grad2_0" x1="0%" y1="100%" x2="56.3%" y2="0%"><stop offset="14.444444444444446%" stop-color="#0066ff" stop-opacity="1"></stop><stop offset="85.55555555555554%" stop-color="#0066ff" stop-opacity="1"></stop></linearGradient></defs><defs><linearGradient id="grad2_1" x1="0%" y1="100%" x2="56.3%" y2="0%"><stop offset="14.444444444444446%" stop-color="#0056eb" stop-opacity="1"></stop><stop offset="85.55555555555554%" stop-color="#0066ff" stop-opacity="1"></stop></linearGradient></defs><defs><linearGradient id="grad2_2" x1="0%" y1="100%" x2="56.3%" y2="0%"><stop offset="14.444444444444446%" stop-color="#0056eb" stop-opacity="1"></stop><stop offset="85.55555555555554%" stop-color="#0046d7" stop-opacity="1"></stop></linearGradient></defs><defs><linearGradient id="grad2_3" x1="0%" y1="100%" x2="56.3%" y2="0%"><stop offset="14.444444444444446%" stop-color="#0038c3" stop-opacity="1"></stop><stop offset="85.55555555555554%" stop-color="#0046d7" stop-opacity="1"></stop></linearGradient></defs><defs><linearGradient id="grad2_4" x1="0%" y1="100%" x2="56.3%" y2="0%"><stop offset="14.444444444444446%" stop-color="#0038c3" stop-opacity="1"></stop><stop offset="85.55555555555554%" stop-color="#002ab0" stop-opacity="1"></stop></linearGradient></defs><defs><linearGradient id="grad2_5" x1="0%" y1="100%" x2="56.3%" y2="0%"><stop offset="14.444444444444446%" stop-color="#001e9d" stop-opacity="1"></stop><stop offset="85.55555555555554%" stop-color="#002ab0" stop-opacity="1"></stop></linearGradient></defs><defs><linearGradient id="grad2_6" x1="0%" y1="100%" x2="56.3%" y2="0%"><stop offset="14.444444444444446%" stop-color="#001e9d" stop-opacity="1"></stop><stop offset="85.55555555555554%" stop-color="#00138b" stop-opacity="1"></stop></linearGradient></defs><defs><linearGradient id="grad2_7" x1="0%" y1="100%" x2="56.3%" y2="0%"><stop offset="14.444444444444446%" stop-color="#000000" stop-opacity="1"></stop><stop offset="85.55555555555554%" stop-color="#00138b" stop-opacity="1"></stop></linearGradient></defs><g transform="translate(960, 540)"><path d="M-297 0C-266.9 -11.9 -236.9 -23.8 -239.3 -42.2C-241.7 -60.6 -276.7 -85.5 -279.1 -101.6C-281.5 -117.6 -251.4 -124.8 -235.6 -136C-219.7 -147.2 -218.1 -162.4 -213.7 -179.3C-209.4 -196.3 -202.2 -214.9 -187.7 -223.7C-173.2 -232.4 -151.2 -231.3 -132.5 -229.5C-113.8 -227.7 -98.2 -225.3 -85.5 -234.9C-72.8 -244.6 -62.9 -266.3 -49.1 -278.7C-35.4 -291.1 -17.7 -294 0 -297L0 0Z" fill="#000b82"></path><path d="M-259.9 0C-233.6 -10.4 -207.3 -20.8 -209.4 -36.9C-211.5 -53 -242.1 -74.8 -244.2 -88.9C-246.3 -102.9 -220 -109.2 -206.1 -119C-192.2 -128.8 -190.8 -142.1 -187 -156.9C-183.2 -171.7 -176.9 -188.1 -164.2 -195.7C-151.5 -203.4 -132.3 -202.4 -115.9 -200.8C-99.5 -199.2 -85.9 -197.1 -74.8 -205.6C-63.7 -214 -55.1 -233 -43 -243.9C-30.9 -254.7 -15.5 -257.3 0 -259.9L0 0Z" fill="#001894"></path><path d="M-222.7 0C-200.2 -8.9 -177.7 -17.8 -179.5 -31.6C-181.3 -45.5 -207.5 -64.1 -209.3 -76.2C-211.1 -88.2 -188.6 -93.6 -176.7 -102C-164.8 -110.4 -163.6 -121.8 -160.3 -134.5C-157 -147.2 -151.7 -161.2 -140.8 -167.8C-129.9 -174.3 -113.4 -173.5 -99.4 -172.1C-85.3 -170.8 -73.7 -168.9 -64.1 -176.2C-54.6 -183.4 -47.2 -199.8 -36.9 -209C-26.5 -218.3 -13.3 -220.5 0 -222.7L0 0Z" fill="#0024a7"></path><path d="M-185.6 0C-166.8 -7.4 -148 -14.9 -149.6 -26.4C-151.1 -37.9 -172.9 -53.5 -174.4 -63.5C-175.9 -73.5 -157.1 -78 -147.2 -85C-137.3 -92 -136.3 -101.5 -133.6 -112.1C-130.8 -122.7 -126.4 -134.3 -117.3 -139.8C-108.2 -145.3 -94.5 -144.6 -82.8 -143.4C-71.1 -142.3 -61.4 -140.8 -53.4 -146.8C-45.5 -152.9 -39.3 -166.5 -30.7 -174.2C-22.1 -181.9 -11.1 -183.8 0 -185.6L0 0Z" fill="#0031ba"></path><path d="M-148.5 0C-133.5 -5.9 -118.4 -11.9 -119.7 -21.1C-120.9 -30.3 -138.3 -42.8 -139.5 -50.8C-140.8 -58.8 -125.7 -62.4 -117.8 -68C-109.9 -73.6 -109 -81.2 -106.9 -89.7C-104.7 -98.1 -101.1 -107.5 -93.8 -111.8C-86.6 -116.2 -75.6 -115.6 -66.3 -114.7C-56.9 -113.9 -49.1 -112.6 -42.8 -117.5C-36.4 -122.3 -31.5 -133.2 -24.6 -139.4C-17.7 -145.5 -8.8 -147 0 -148.5L0 0Z" fill="#003fcd"></path><path d="M-111.4 0C-100.1 -4.5 -88.8 -8.9 -89.7 -15.8C-90.7 -22.7 -103.8 -32.1 -104.7 -38.1C-105.6 -44.1 -94.3 -46.8 -88.3 -51C-82.4 -55.2 -81.8 -60.9 -80.1 -67.3C-78.5 -73.6 -75.8 -80.6 -70.4 -83.9C-64.9 -87.2 -56.7 -86.7 -49.7 -86.1C-42.7 -85.4 -36.8 -84.5 -32.1 -88.1C-27.3 -91.7 -23.6 -99.9 -18.4 -104.5C-13.3 -109.1 -6.6 -110.3 0 -111.4L0 0Z" fill="#004ee1"></path><path d="M-74.2 0C-66.7 -3 -59.2 -5.9 -59.8 -10.5C-60.4 -15.2 -69.2 -21.4 -69.8 -25.4C-70.4 -29.4 -62.9 -31.2 -58.9 -34C-54.9 -36.8 -54.5 -40.6 -53.4 -44.8C-52.3 -49.1 -50.6 -53.7 -46.9 -55.9C-43.3 -58.1 -37.8 -57.8 -33.1 -57.4C-28.4 -56.9 -24.6 -56.3 -21.4 -58.7C-18.2 -61.1 -15.7 -66.6 -12.3 -69.7C-8.8 -72.8 -4.4 -73.5 0 -74.2L0 0Z" fill="#005ef5"></path><path d="M-37.1 0C-33.4 -1.5 -29.6 -3 -29.9 -5.3C-30.2 -7.6 -34.6 -10.7 -34.9 -12.7C-35.2 -14.7 -31.4 -15.6 -29.4 -17C-27.5 -18.4 -27.3 -20.3 -26.7 -22.4C-26.2 -24.5 -25.3 -26.9 -23.5 -28C-21.6 -29.1 -18.9 -28.9 -16.6 -28.7C-14.2 -28.5 -12.3 -28.2 -10.7 -29.4C-9.1 -30.6 -7.9 -33.3 -6.1 -34.8C-4.4 -36.4 -2.2 -36.8 0 -37.1L0 0Z" fill="#0066ff"></path></g><g transform="translate(0, 0)"><path d="M297 0C296.8 18.4 296.6 36.9 281.7 49.7C266.7 62.5 236.8 69.6 225.5 82.1C214.2 94.6 221.4 112.4 218.2 126C215.1 139.6 201.7 149 193.8 162.6C186 176.2 183.7 194 175.5 209.1C167.3 224.3 153.1 236.8 135 233.8C116.9 230.9 94.7 212.5 81.4 223.6C68.1 234.8 63.7 275.3 51.6 292.5C39.5 309.6 19.7 303.3 0 297L0 0Z" fill="#000b82"></path><path d="M259.9 0C259.7 16.1 259.6 32.3 246.4 43.5C233.3 54.6 207.2 60.9 197.3 71.8C187.4 82.7 193.7 98.3 191 110.2C188.2 122.2 176.5 130.4 169.6 142.3C162.7 154.2 160.7 169.7 153.5 183C146.4 196.2 134 207.2 118.1 204.6C102.2 202 82.9 186 71.2 195.7C59.6 205.4 55.7 240.9 45.1 255.9C34.5 270.9 17.3 265.4 0 259.9L0 0Z" fill="#001894"></path><path d="M222.8 0C222.6 13.8 222.5 27.7 211.2 37.2C200 46.8 177.6 52.2 169.1 61.6C160.7 70.9 166 84.3 163.7 94.5C161.3 104.7 151.2 111.8 145.4 122C139.5 132.2 137.8 145.5 131.6 156.8C125.5 168.2 114.9 177.6 101.3 175.4C87.6 173.2 71 159.4 61.1 167.7C51.1 176.1 47.7 206.5 38.7 219.4C29.6 232.2 14.8 227.5 0 222.8L0 0Z" fill="#0024a7"></path><path d="M185.6 0C185.5 11.5 185.4 23 176 31C166.7 39 148 43.5 141 51.3C133.9 59.1 138.4 70.2 136.4 78.7C134.4 87.3 126 93.1 121.1 101.6C116.2 110.1 114.8 121.2 109.7 130.7C104.5 140.2 95.7 148 84.4 146.1C73 144.3 59.2 132.8 50.9 139.8C42.6 146.7 39.8 172.1 32.2 182.8C24.7 193.5 12.3 189.6 0 185.6L0 0Z" fill="#0031ba"></path><path d="M148.5 0C148.4 9.2 148.3 18.4 140.8 24.8C133.3 31.2 118.4 34.8 112.8 41C107.1 47.3 110.7 56.2 109.1 63C107.6 69.8 100.8 74.5 96.9 81.3C93 88.1 91.8 97 87.7 104.6C83.6 112.1 76.6 118.4 67.5 116.9C58.4 115.4 47.3 106.3 40.7 111.8C34.1 117.4 31.8 137.7 25.8 146.2C19.7 154.8 9.9 151.7 0 148.5L0 0Z" fill="#003fcd"></path><path d="M111.4 0C111.3 6.9 111.2 13.8 105.6 18.6C100 23.4 88.8 26.1 84.6 30.8C80.3 35.5 83 42.1 81.8 47.2C80.7 52.4 75.6 55.9 72.7 61C69.7 66.1 68.9 72.7 65.8 78.4C62.7 84.1 57.4 88.8 50.6 87.7C43.8 86.6 35.5 79.7 30.5 83.9C25.5 88 23.9 103.3 19.3 109.7C14.8 116.1 7.4 113.7 0 111.4L0 0Z" fill="#004ee1"></path><path d="M74.3 0C74.2 4.6 74.2 9.2 70.4 12.4C66.7 15.6 59.2 17.4 56.4 20.5C53.6 23.6 55.3 28.1 54.6 31.5C53.8 34.9 50.4 37.3 48.5 40.7C46.5 44.1 45.9 48.5 43.9 52.3C41.8 56.1 38.3 59.2 33.8 58.5C29.2 57.7 23.7 53.1 20.4 55.9C17 58.7 15.9 68.8 12.9 73.1C9.9 77.4 4.9 75.8 0 74.3L0 0Z" fill="#005ef5"></path><path d="M37.1 0C37.1 2.3 37.1 4.6 35.2 6.2C33.3 7.8 29.6 8.7 28.2 10.3C26.8 11.8 27.7 14 27.3 15.7C26.9 17.5 25.2 18.6 24.2 20.3C23.2 22 23 24.2 21.9 26.1C20.9 28 19.1 29.6 16.9 29.2C14.6 28.9 11.8 26.6 10.2 28C8.5 29.3 8 34.4 6.4 36.6C4.9 38.7 2.5 37.9 0 37.1L0 0Z" fill="#0066ff"></path></g></svg>